<svg xmlns="http://www.w3.org/2000/svg" xmlns:xlink="http://www.w3.org/1999/xlink" width="151" height="151" viewBox="0 0 151 151">
  <defs>
    <style>
      .cls-1 {
        fill: none;
        stroke-width: 1px;
        fill-rule: evenodd;
        stroke: url(#linear-gradient);
      }
    </style>
    <linearGradient id="linear-gradient" x1="265" y1="3846" x2="265" y2="3696" gradientUnits="userSpaceOnUse">
      <stop offset="0" stop-color="#aea67e"/>
      <stop offset="0.06" stop-color="#cfc7a9"/>
      <stop offset="0.16" stop-color="#7c7354"/>
      <stop offset="0.18" stop-color="#87815e"/>
      <stop offset="0.23" stop-color="#87815e"/>
      <stop offset="0.33" stop-color="#5a573f"/>
      <stop offset="0.49" stop-color="#c2b691"/>
      <stop offset="0.57" stop-color="#fdfdfd"/>
      <stop offset="0.61" stop-color="#fefefe"/>
      <stop offset="0.72" stop-color="#bbb185"/>
      <stop offset="0.75" stop-color="#e2decb"/>
      <stop offset="0.79" stop-color="#9e956b"/>
      <stop offset="0.82" stop-color="#857e5d"/>
      <stop offset="0.84" stop-color="#898161"/>
      <stop offset="0.87" stop-color="#a39971"/>
      <stop offset="0.91" stop-color="#aa9f74"/>
      <stop offset="0.98" stop-color="#e0dac9"/>
      <stop offset="1" stop-color="#e0dac9"/>
    </linearGradient>
  </defs>
  <path id="Фигура_1" data-name="Фигура 1" class="cls-1" d="M311.549,3696.01c3.637,5.28,8.966,14.29,15.576,19.1q4.543,3.525,9.088,7.04c0.846,0.49,3.012,1.48,3.524,2.23,0.093,0.22.185,0.43,0.278,0.65-11.666,19.77-19.863,39.94-14.4,59.64a135.367,135.367,0,0,0,9.175,23.46c0.737,1.5,5.346,8.04,5.1,8.99-0.284,1.1-5.781,4.48-6.959,5.29a76.868,76.868,0,0,0-16.7,16.52c-1.461,2.04-3.379,6.43-5.568,7.05-22.142-14.98-44.892-19.37-67.154-12.03-5.8,1.91-11.7,4.95-17.349,7.89-2.529,1.31-4.8,3.51-7.33,4.17-2.2-2.18-3.289-4.44-4.728-6.58-2.315-3.44-8.695-10.72-12.61-13.54-1.54-1.1-2.939-2.65-4.822-3.89-2.066-1.35-5.02-2.61-6.677-5.01,2.148-5.51,6.583-10.86,8.911-16.32,6.814-15.98,9.368-32.19,4.192-48.14-1.966-6.05-4.876-11.9-7.6-17.99-1.516-3.39-4.769-6.51-5.469-9.92,1.805-1.74,5.183-3.51,7.423-5.01,6.964-4.66,18.238-17.23,20.88-23.47,1.82-.21,10.787,5.72,13.262,6.95,8.963,4.46,19.529,8.37,28.659,8.61a76.764,76.764,0,0,0,32.84-6.13q5.751-2.88,11.5-5.75C306.9,3698.47,309.227,3696.38,311.549,3696.01Z" transform="translate(-189.5 -3695.5)"/>
</svg>
